<?xml version="1.0" encoding="UTF-8" standalone="no"?>
<!DOCTYPE svg PUBLIC "-//W3C//DTD SVG 20010904//EN"
              "http://www.w3.org/TR/2001/REC-SVG-20010904/DTD/svg10.dtd">

<svg xmlns="http://www.w3.org/2000/svg"
     width="6.4in" height="3.6in"
     viewBox="0 0 1920 1080">
  <path id="Selection"
        fill="none" stroke="black" stroke-width="1"
        d="M 904.00,98.14
           C 904.00,98.14 881.00,99.00 881.00,99.00
             881.00,99.00 868.00,100.00 868.00,100.00
             836.94,100.36 775.57,106.72 744.00,111.27
             584.15,134.31 409.03,184.04 280.00,284.58
             219.15,331.99 163.60,395.52 144.47,472.00
             138.34,496.53 136.71,515.86 137.00,541.00
             137.16,553.94 140.19,572.28 143.12,585.00
             161.78,665.98 217.09,729.08 281.00,779.21
             319.91,809.73 368.05,837.67 413.00,858.31
             505.94,900.98 601.22,928.45 702.00,945.25
             738.62,951.35 775.09,955.64 812.00,959.17
             812.00,959.17 843.00,962.00 843.00,962.00
             843.00,962.00 852.00,962.00 852.00,962.00
             852.00,962.00 862.00,963.00 862.00,963.00
             862.00,963.00 895.00,964.00 895.00,964.00
             895.00,964.00 912.00,965.00 912.00,965.00
             912.00,965.00 973.00,965.00 973.00,965.00
             973.00,965.00 988.00,964.00 988.00,964.00
             988.00,964.00 1002.00,964.00 1002.00,964.00
             1002.00,964.00 1021.00,963.00 1021.00,963.00
             1021.00,963.00 1033.00,962.09 1033.00,962.09
             1033.00,962.09 1061.00,960.17 1061.00,960.17
             1061.00,960.17 1090.00,957.83 1090.00,957.83
             1090.00,957.83 1178.00,946.08 1178.00,946.08
             1304.45,925.15 1440.73,884.47 1550.00,816.42
             1633.00,764.74 1715.94,689.33 1740.53,591.00
             1746.66,566.47 1748.29,547.14 1748.00,522.00
             1748.00,522.00 1747.09,512.00 1747.09,512.00
             1745.46,489.78 1740.40,467.89 1732.68,447.00
             1704.57,370.94 1646.77,313.86 1582.00,267.58
             1538.60,236.57 1487.16,210.20 1438.00,189.58
             1356.90,155.54 1269.69,132.20 1183.00,117.75
             1152.13,112.61 1121.13,108.28 1090.00,105.17
             1090.00,105.17 1061.00,102.83 1061.00,102.83
             1061.00,102.83 1017.00,100.00 1017.00,100.00
             1017.00,100.00 1003.00,99.00 1003.00,99.00
             1003.00,99.00 988.00,99.00 988.00,99.00
             988.00,99.00 973.00,98.14 973.00,98.14
             973.00,98.14 936.00,98.14 936.00,98.14
             936.00,98.14 904.00,98.14 904.00,98.14 Z" />
</svg>
